<?xml version="1.0" encoding="UTF-8"?> <svg xmlns="http://www.w3.org/2000/svg" width="36" height="37" viewBox="0 0 36 37" fill="none"> <path d="M35.999 18.0078C35.999 20.3716 35.5334 22.7123 34.6289 24.8961C33.7243 27.08 32.3984 29.0643 30.7269 30.7357C29.0555 32.4072 27.0712 33.7331 24.8873 34.6376C22.7035 35.5422 20.3628 36.0078 17.999 36.0078C15.6352 36.0078 13.2946 35.5422 11.1107 34.6376C8.92686 33.7331 6.94256 32.4072 5.2711 30.7357C3.59965 29.0643 2.27378 27.08 1.36919 24.8961C0.464607 22.7123 -0.000976769 20.3716 -0.000976562 18.0078L17.999 18.0078H35.999Z" fill="#95A5B9"></path> <path d="M-0.000974989 18.0078C-0.000974782 15.644 0.464609 13.3034 1.36919 11.1195C2.27378 8.93565 3.59965 6.95134 5.2711 5.27989C6.94256 3.60843 8.92686 2.28256 11.1107 1.37798C13.2946 0.473394 15.6352 0.00781062 17.999 0.00781093C20.3628 0.00781124 22.7035 0.473395 24.8873 1.37798C27.0712 2.28257 29.0555 3.60844 30.7269 5.27989C32.3984 6.95135 33.7243 8.93565 34.6289 11.1195C35.5334 13.3034 35.999 15.644 35.999 18.0078L17.999 18.0078L-0.000974989 18.0078Z" fill="#374F6A"></path> </svg> 