<?xml version="1.0" encoding="UTF-8"?> <svg xmlns="http://www.w3.org/2000/svg" width="36" height="36" viewBox="0 0 36 36" fill="none"> <path d="M-0.000730848 18C-0.000730642 15.6362 0.464853 13.2956 1.36944 11.1117C2.27402 8.92783 3.59989 6.94353 5.27135 5.27207C6.9428 3.60062 8.92711 2.27475 11.111 1.37017C13.2948 0.465582 15.6355 -1.88358e-06 17.9993 -1.57361e-06C20.3631 -1.26364e-06 22.7037 0.465583 24.8876 1.37017C27.0714 2.27475 29.0557 3.60062 30.7272 5.27208C32.3986 6.94353 33.7245 8.92784 34.6291 11.1117C35.5337 13.2956 35.9993 15.6362 35.9993 18L17.9993 18L-0.000730848 18Z" fill="#A5B0A1"></path> <path d="M35.9993 18C35.9993 20.3638 35.5337 22.7044 34.6291 24.8883C33.7245 27.0722 32.3986 29.0565 30.7272 30.7279C29.0557 32.3994 27.0714 33.7253 24.8876 34.6298C22.7037 35.5344 20.3631 36 17.9993 36C15.6355 36 13.2948 35.5344 11.111 34.6298C8.9271 33.7252 6.94279 32.3994 5.27134 30.7279C3.59989 29.0565 2.27402 27.0722 1.36943 24.8883C0.464847 22.7044 -0.000736189 20.3638 -0.000735569 18L17.9993 18L35.9993 18Z" fill="#E8ECE4"></path> </svg> 