<?xml version="1.0" encoding="UTF-8"?> <svg xmlns="http://www.w3.org/2000/svg" width="685" height="157" viewBox="0 0 685 157" fill="none"> <path d="M111.024 154H135.989L81.1092 2.00208H55.6182L0.73877 154H25.2818L39.186 112.92H97.1201L111.024 154ZM67.837 27.2824H68.469L91.116 93.9593H45.19L67.837 27.2824Z" fill="#030303"></path> <path d="M144.264 154H167.016V43.188H144.264V154ZM155.64 26.9664C163.013 26.9664 168.912 21.173 168.912 14.0102C168.912 6.74214 163.013 0.94873 155.64 0.94873C148.372 0.94873 142.473 6.74214 142.473 14.0102C142.473 21.173 148.372 26.9664 155.64 26.9664Z" fill="#030303"></path> <path d="M183.823 154H206.576V87.6393C206.576 71.9444 215.634 62.1482 230.276 62.1482C234.7 62.1482 238.703 62.6749 240.493 63.4123V42.24C238.808 41.924 235.964 41.3973 232.699 41.3973C219.637 41.3973 209.736 49.0867 206.049 62.0429H205.522V43.188H183.823V154Z" fill="#030303"></path> <path d="M257.01 2.00195V154H280.605V102.07H313.258C343.068 102.07 364.03 81.635 364.03 51.9306C364.03 22.3316 343.489 2.00195 313.996 2.00195H257.01ZM280.605 21.9102H307.781C328.216 21.9102 339.908 32.865 339.908 52.036C339.908 71.2069 328.216 82.267 307.676 82.267H280.605V21.9102Z" fill="#030303"></path> <path d="M418.231 156.107C449.936 156.107 470.793 134.302 470.793 98.5939C470.793 62.9908 449.831 41.1865 418.231 41.1865C386.63 41.1865 365.669 62.9908 365.669 98.5939C365.669 134.302 386.525 156.107 418.231 156.107ZM418.231 137.357C400.429 137.357 388.842 123.242 388.842 98.5939C388.842 74.0509 400.429 59.9361 418.231 59.9361C436.032 59.9361 447.619 74.0509 447.619 98.5939C447.619 123.242 436.138 137.357 418.231 137.357Z" fill="#030303"></path> <path d="M523.519 155.896C539.635 155.896 552.276 147.785 558.806 135.145H559.228V154H581.348V2.00195H558.49V61.6214H558.069C551.854 49.4026 539.214 41.3972 523.308 41.3972C495.5 41.3972 476.961 63.6228 476.961 98.5939C476.961 133.565 495.5 155.896 523.519 155.896ZM529.523 60.5681C547.009 60.5681 558.701 75.631 558.701 98.5939C558.701 121.768 547.009 136.62 529.523 136.62C511.511 136.62 500.24 121.978 500.24 98.5939C500.24 75.3149 511.511 60.5681 529.523 60.5681Z" fill="#030303"></path> <path d="M596.259 74.5776C596.259 90.0618 606.371 100.49 626.385 105.335L646.188 110.181C657.775 113.13 661.988 117.028 661.988 124.085C661.988 133.038 653.561 138.726 639.868 138.726C625.964 138.726 617.747 132.828 615.957 122.189H593.415C595.206 142.519 612.586 156.107 638.814 156.107C665.991 156.107 684.846 142.203 684.846 121.978C684.846 105.651 676.419 97.2246 654.088 91.8525L635.444 87.5338C623.962 84.6897 618.485 80.055 618.485 73.2083C618.485 64.4655 626.701 58.4614 639.025 58.4614C651.771 58.4614 659.881 64.6761 660.935 74.6829H682.318C681.58 54.9853 664.305 41.1865 639.657 41.1865C613.745 41.1865 596.259 54.7747 596.259 74.5776Z" fill="#030303"></path> </svg> 