<?xml version="1.0" encoding="UTF-8"?> <svg xmlns="http://www.w3.org/2000/svg" width="514" height="165" viewBox="0 0 514 165" fill="none"> <path d="M153.798 163V11.0017H126.411L77.3252 130.978H76.4826L27.2912 11.0017H0.00952148V163H21.4978V51.1342H22.2352L68.1611 161.841H85.6467L131.467 51.1342H132.205V163H153.798Z" fill="#030303"></path> <path d="M208.421 146.884C196.202 146.884 188.196 140.563 188.196 130.873C188.196 121.393 195.886 115.388 209.474 114.44L236.756 112.755V121.498C236.756 135.929 224.326 146.884 208.421 146.884ZM202.101 164.896C216.637 164.896 230.646 157.101 237.072 144.777H237.598V163H259.403V86.6321C259.403 64.4064 242.233 50.1862 215.373 50.1862C187.986 50.1862 170.922 64.9331 169.658 84.9467H191.146C193.147 75.0452 201.363 68.7252 214.53 68.7252C228.434 68.7252 236.756 76.0986 236.756 88.4227V96.9549L206.419 98.7456C180.086 100.22 165.233 112.123 165.233 131.505C165.233 151.413 180.402 164.896 202.101 164.896Z" fill="#030303"></path> <path d="M316.553 122.235L340.991 163H366.06L330.141 106.962L366.482 52.1876H341.412L317.501 92.3201H317.08L292.853 52.1876H267.362L303.386 107.699L266.835 163H291.483L316.026 122.235H316.553Z" fill="#030303"></path> <path d="M461.822 101.695C490.79 101.695 513.542 79.364 513.542 50.9236C513.542 22.2725 490.79 0.046875 461.822 0.046875C432.855 0.046875 410.208 22.3778 410.208 50.9236C410.208 79.364 432.961 101.695 461.822 101.695ZM461.822 90.1081C440.018 90.1081 422.849 72.8332 422.849 50.9236C422.849 28.8033 440.018 11.739 461.822 11.739C483.837 11.739 500.796 28.8033 500.796 50.9236C500.796 72.8332 483.837 90.1081 461.822 90.1081ZM453.185 73.9919V56.717H460.98L472.145 73.9919H485.839L472.461 55.137C479.203 53.8729 483.311 48.3955 483.311 40.9168C483.311 32.2793 476.253 26.0646 466.141 26.0646H442.125V73.9919H453.185ZM453.185 35.2287H464.14C468.88 35.2287 471.513 37.3354 471.513 41.5488C471.513 45.8675 468.669 48.3955 463.824 48.3955H453.185V35.2287Z" fill="#030303"></path> </svg> 