<?xml version="1.0" encoding="UTF-8"?> <svg xmlns="http://www.w3.org/2000/svg" width="36" height="37" viewBox="0 0 36 37" fill="none"> <path d="M1.57361e-06 18.0068C1.78026e-06 15.643 0.465586 13.3024 1.37017 11.1185C2.27476 8.93467 3.60063 6.95037 5.27208 5.27891C6.94354 3.60746 8.92784 2.28159 11.1117 1.377C13.2956 0.472418 15.6362 0.00683405 18 0.00683436C20.3638 0.00683467 22.7044 0.472419 24.8883 1.377C27.0722 2.28159 29.0565 3.60746 30.7279 5.27891C32.3994 6.95037 33.7252 8.93467 34.6298 11.1185C35.5344 13.3024 36 15.643 36 18.0068L18 18.0068L1.57361e-06 18.0068Z" fill="#D2D3D4"></path> <path d="M36 18.0068C36 20.3706 35.5344 22.7113 34.6298 24.8951C33.7252 27.079 32.3994 29.0633 30.7279 30.7348C29.0565 32.4062 27.0722 33.7321 24.8883 34.6367C22.7044 35.5413 20.3638 36.0068 18 36.0068C15.6362 36.0068 13.2956 35.5413 11.1117 34.6367C8.92783 33.7321 6.94353 32.4062 5.27207 30.7348C3.60062 29.0633 2.27475 27.079 1.37016 24.8951C0.465579 22.7113 -3.76717e-06 20.3706 -3.14722e-06 18.0068L18 18.0068L36 18.0068Z" fill="#F5F4F0"></path> </svg> 